# xmcd
#
# Track frame offsets:
#	150
#	21513
#	36016
#	59269
#	74929
#	79940
#	96994
#	130045
#	160388
#	185989
#	212419
#	235707
#	253435
#	280189
#	302100
#
# Disc length: 4537 seconds
#
# Revision: 0
# Processed by: cddbd v1.5.2PL0 Copyright (c) Steve Scherf et al.
# Submitted via: EZCDAudioConverter 5.0.4.2
#
DISCID=e511b70f
DTITLE=Jeff Healey - Holding On (A Heal My Soul Companion)
DYEAR=2016
DGENRE=Blues Rock
TTITLE0=Love Takes Time
TTITLE1=Every Other Guy
TTITLE2=Dancing With The Monsters
TTITLE3=All That I Believe
TTITLE4=CNIBlues
TTITLE5=My Little Girl
TTITLE6=Dust My Broom
TTITLE7=How Blue Can You Get
TTITLE8=I Think I Love You Too Much
TTITLE9=Stuck In The Middle With You - Tequila
TTITLE10=Macon Georgia Blue
TTITLE11=I Can't Get My Hands On You
TTITLE12=Yer Blues
TTITLE13=Holding On
TTITLE14=See The Light
EXTD=
EXTT0=
EXTT1=
EXTT2=
EXTT3=
EXTT4=
EXTT5=
EXTT6=
EXTT7=
EXTT8=
EXTT9=
EXTT10=
EXTT11=
EXTT12=
EXTT13=
EXTT14=
PLAYORDER=
